<svg width="22" height="20" viewBox="0 0 22 20" fill="none" xmlns="http://www.w3.org/2000/svg">
<path d="M16.225 11.5C17.674 11.5 18.8395 10.3 18.8395 8.82143C18.8395 7.34286 17.674 6.14286 16.225 6.14286C14.776 6.14286 13.6 7.34286 13.6 8.82143C13.6 10.3 14.776 11.5 16.225 11.5ZM8.35 10.4286C10.093 10.4286 11.4895 8.99286 11.4895 7.21429C11.4895 5.43571 10.093 4 8.35 4C6.607 4 5.2 5.43571 5.2 7.21429C5.2 8.99286 6.607 10.4286 8.35 10.4286ZM16.225 13.6429C14.3035 13.6429 10.45 14.6286 10.45 16.5893V19H22V16.5893C22 14.6286 18.1465 13.6429 16.225 13.6429ZM8.35 12.5714C5.9035 12.5714 1 13.825 1 16.3214V19H8.35V16.5893C8.35 15.6786 8.6965 14.0821 10.8385 12.8714C9.925 12.6786 9.043 12.5714 8.35 12.5714Z" fill="#76879D"/>
</svg>
