<svg width="28" height="28" viewBox="0 0 28 28" fill="none" xmlns="http://www.w3.org/2000/svg">
<path fill-rule="evenodd" clip-rule="evenodd" d="M5.83333 25C5.21449 25 4.621 24.7542 4.18342 24.3166C3.74583 23.879 3.5 23.2855 3.5 22.6667V6.33333C3.5 5.71449 3.74583 5.121 4.18342 4.68342C4.621 4.24583 5.21449 4 5.83333 4H22.1667C22.7855 4 23.379 4.24583 23.8166 4.68342C24.2542 5.121 24.5 5.71449 24.5 6.33333V22.6667C24.5 23.2855 24.2542 23.879 23.8166 24.3166C23.379 24.7542 22.7855 25 22.1667 25H5.83333ZM19.8333 6.33333V8.66667H22.1667V6.33333H19.8333ZM14 20.3333C15.5471 20.3333 17.0308 19.7188 18.1248 18.6248C19.2188 17.5308 19.8333 16.0471 19.8333 14.5C19.8333 12.9529 19.2188 11.4692 18.1248 10.3752C17.0308 9.28125 15.5471 8.66667 14 8.66667C12.4529 8.66667 10.9692 9.28125 9.87521 10.3752C8.78125 11.4692 8.16667 12.9529 8.16667 14.5C8.16667 16.0471 8.78125 17.5308 9.87521 18.6248C10.9692 19.7188 12.4529 20.3333 14 20.3333ZM14 18C14.9283 18 15.8185 17.6313 16.4749 16.9749C17.1313 16.3185 17.5 15.4283 17.5 14.5C17.5 13.5717 17.1313 12.6815 16.4749 12.0251C15.8185 11.3687 14.9283 11 14 11C13.0717 11 12.1815 11.3687 11.5251 12.0251C10.8687 12.6815 10.5 13.5717 10.5 14.5C10.5 15.4283 10.8687 16.3185 11.5251 16.9749C12.1815 17.6313 13.0717 18 14 18Z" fill="#A6A6A6"/>
</svg>
