<svg width="713" height="695" viewBox="0 0 713 695" fill="none" xmlns="http://www.w3.org/2000/svg">
<g filter="url(#filter0_ddd)">
<path d="M133.127 645.907L16.9283 498.339C13.9924 494.61 8 496.686 8 501.432V649C8 651.761 10.2386 654 13 654H129.199C133.373 654 135.71 649.187 133.127 645.907Z" fill="#7C9BC2"/>
</g>
<g filter="url(#filter1_ddd)">
<path d="M90.7499 627.662L34.3711 554.929C32.6196 552.67 29 553.908 29 556.767V629.5C29 631.157 30.3431 632.5 32 632.5H88.3788C90.873 632.5 92.2779 629.633 90.7499 627.662Z" fill="#577BA9"/>
</g>
<g filter="url(#filter2_ddd)">
<path d="M13.1147 273.618L240.994 -49.2388C246.615 -57.2019 255.754 -61.9381 265.501 -61.9393L785.26 -62H791.937C791.972 -62 792 -61.972 792 -61.9375V687.904C792 687.956 791.956 687.998 791.904 687.996L317.903 667.193C309.341 666.817 301.349 662.798 295.942 656.148L14.3483 309.844C5.86399 299.41 5.35983 284.605 13.1147 273.618Z" fill="#749BCC" fill-opacity="0.8"/>
</g>
<g filter="url(#filter3_ddd)">
<path d="M54.1208 273.195L257.062 -14.2483C262.682 -22.2095 271.82 -26.9444 281.566 -26.9455L747.932 -27H753.944C753.975 -27 754 -26.9748 754 -26.9437V647.913C754 647.961 753.961 647.998 753.914 647.996L328.533 629.332C319.973 628.957 311.982 624.938 306.575 618.291L55.3548 309.427C46.8671 298.992 46.3628 284.183 54.1208 273.195Z" fill="#577BA9"/>
</g>
<g clip-path="url(#clip0)">
<path opacity="0.5" d="M402.53 306.07L583.53 410.58C629.53 437.16 682.66 381.09 639.18 350.53C596.89 320.81 588.45 346.36 567.18 350.53C543.34 355.2 560.11 318.87 525.5 312.19C495.06 306.32 498.28 329.98 480.28 331.14C461.14 332.38 402.53 306.07 402.53 306.07Z" fill="url(#paint0_linear)"/>
<path opacity="0.5" d="M188.33 255.13L416.53 124.84C416.53 124.84 407.26 49.64 385.68 99.7C364.1 149.76 318.68 39.2 293.68 140.76C282.7 185.38 181.19 205.33 188.33 255.13Z" fill="url(#paint1_linear)"/>
<path opacity="0.5" d="M750.75 228.91L547 111.28C547 111.28 559.2 12.28 587.62 78.18C616.04 144.08 675.77 -1.47999 708.73 132.25C723.22 191 760.15 163.34 750.75 228.91Z" fill="url(#paint2_linear)"/>
<path d="M568.82 505.45L463.43 565C462.309 565.646 461.039 565.986 459.745 565.986C458.452 565.986 457.181 565.646 456.06 565L382.73 521.93C381.611 521.283 380.682 520.353 380.036 519.233C379.39 518.113 379.05 516.843 379.05 515.55C379.05 514.257 379.39 512.987 380.036 511.867C380.682 510.747 381.611 509.817 382.73 509.17L487.92 449.53C489.042 448.881 490.314 448.54 491.61 448.54C492.906 448.54 494.178 448.881 495.3 449.53L568.83 492.7C570.458 493.632 571.663 495.159 572.19 496.96C572.672 498.548 572.601 500.252 571.989 501.794C571.377 503.336 570.26 504.625 568.82 505.45Z" fill="url(#paint3_linear)"/>
<path d="M572.21 497C571.681 498.814 570.465 500.35 568.82 501.28L463.43 560.78C462.31 561.429 461.039 561.771 459.745 561.771C458.451 561.771 457.18 561.429 456.06 560.78L382.73 517.71C381.768 517.485 380.91 516.941 380.295 516.167C379.681 515.393 379.347 514.433 379.347 513.445C379.347 512.457 379.681 511.497 380.295 510.723C380.91 509.949 381.768 509.405 382.73 509.18L487.92 449.54C489.042 448.891 490.314 448.55 491.61 448.55C492.906 448.55 494.178 448.891 495.3 449.54L568.83 492.71C570.472 493.646 571.685 495.185 572.21 497Z" fill="url(#paint4_linear)"/>
<path d="M460.36 558.92C458.995 558.937 457.649 558.592 456.46 557.92L388.39 517.92C386.677 516.938 385.409 515.333 384.85 513.44L384.77 513.17L384.85 512.91C385.407 510.999 386.688 509.381 388.42 508.4L487.16 452.46C488.342 451.779 489.681 451.421 491.045 451.421C492.409 451.421 493.748 451.779 494.93 452.46L563.19 492.56C564.901 493.548 566.168 495.155 566.73 497.05L566.81 497.32L566.73 497.59C566.163 499.499 564.88 501.115 563.15 502.1L464.22 557.94C463.041 558.598 461.71 558.936 460.36 558.92ZM386.76 513.1C387.219 514.412 388.135 515.516 389.34 516.21L457.42 556.21C458.31 556.722 459.319 556.991 460.345 556.991C461.372 556.991 462.38 556.722 463.27 556.21L562.21 500.37C563.426 499.673 564.353 498.562 564.82 497.24C564.361 495.922 563.441 494.814 562.23 494.12L494 454.05C493.107 453.537 492.095 453.267 491.065 453.267C490.035 453.267 489.023 453.537 488.13 454.05L389.36 510C388.148 510.686 387.225 511.787 386.76 513.1Z" fill="url(#paint5_linear)"/>
<path d="M473.75 521.52C470.551 521.517 467.483 520.245 465.222 517.981C462.96 515.718 461.69 512.649 461.69 509.45V79.31C461.644 77.6964 461.921 76.0898 462.507 74.5854C463.092 73.081 463.973 71.7093 465.098 70.5515C466.223 69.3938 467.569 68.4734 469.056 67.8449C470.543 67.2164 472.141 66.8926 473.755 66.8926C475.369 66.8926 476.967 67.2164 478.454 67.8449C479.941 68.4734 481.287 69.3938 482.412 70.5515C483.537 71.7093 484.418 73.081 485.003 74.5854C485.589 76.0898 485.867 77.6964 485.82 79.31V509.45C485.817 512.65 484.545 515.719 482.282 517.982C480.019 520.245 476.95 521.517 473.75 521.52Z" fill="url(#paint6_linear)"/>
<path d="M561.79 25.05C554.107 20.5532 545.391 18.1233 536.49 17.9971C527.589 17.8709 518.807 20.0527 511 24.33C509.87 24.93 508.77 25.59 507.69 26.27L318 138.11L435.36 346.62L617.78 240.37V122C617.773 102.348 612.596 83.0447 602.768 66.0271C592.94 49.0096 578.808 34.8775 561.79 25.05Z" fill="url(#paint7_linear)"/>
<path d="M435.36 228.27V346.62L430.11 343.62L306.51 272.25L301.26 269.25V176.4C301.26 136.32 344.66 111.27 379.37 131.3C396.391 141.129 410.525 155.264 420.353 172.286C430.181 189.307 435.357 208.615 435.36 228.27Z" fill="url(#paint8_linear)"/>
<path d="M430.11 228.84V343.59L429.91 343.47L421.39 338.55L306.51 272.22V181C306.51 144 346.51 120.95 378.51 139.44C399.738 151.663 415.907 171.059 424.11 194.14C425.11 196.88 425.96 199.67 426.71 202.49C428.975 211.09 430.118 219.947 430.11 228.84Z" fill="url(#paint9_linear)"/>
<path d="M311.75 265.48L209.75 324.11C179.38 341.68 179.41 385.54 209.75 403.06C226.513 412.733 245.529 417.821 264.883 417.81C284.237 417.799 303.247 412.691 320 403L430.16 339.74V333.74L311.75 265.48Z" fill="url(#paint10_linear)"/>
<path d="M430.11 228.84V333.51L429.91 333.62L421.39 338.55L319.94 397.27C303.197 406.933 284.206 412.02 264.875 412.02C245.544 412.02 226.553 406.933 209.81 397.27C179.42 379.74 179.39 335.88 209.81 318.27L306.56 262.21L424.1 194.16C425.1 196.9 425.95 199.69 426.7 202.51C428.967 211.103 430.113 219.953 430.11 228.84Z" fill="url(#paint11_linear)"/>
<path d="M376.05 182.97L397.55 170.55L419.05 182.97L397.55 195.38L376.05 182.97Z" fill="url(#paint12_linear)"/>
<path d="M376.05 224.35V182.97L397.55 195.38V236.76L376.05 224.35Z" fill="url(#paint13_linear)"/>
<path d="M419.05 182.97V224.35L397.55 236.76V195.38L419.05 182.97Z" fill="url(#paint14_linear)"/>
<path d="M417.89 186.84V194.19L398.72 205.26V197.92L417.89 186.84Z" fill="url(#paint15_linear)"/>
<path d="M417.89 196.05V203.4L398.72 214.47V207.13L417.89 196.05Z" fill="url(#paint16_linear)"/>
<path d="M417.89 205.26V212.61L398.72 223.68V216.33L417.89 205.26Z" fill="url(#paint17_linear)"/>
<path d="M417.89 214.47V221.81L398.72 232.89V225.54L417.89 214.47Z" fill="url(#paint18_linear)"/>
<path d="M410.17 196.05C410.172 196.175 410.137 196.298 410.069 196.403C410.001 196.508 409.903 196.59 409.788 196.639C409.673 196.688 409.546 196.702 409.423 196.679C409.301 196.656 409.187 196.597 409.098 196.509C409.009 196.421 408.948 196.309 408.923 196.187C408.898 196.064 408.91 195.937 408.957 195.821C409.005 195.706 409.085 195.607 409.189 195.537C409.293 195.467 409.415 195.43 409.54 195.43C409.705 195.43 409.864 195.495 409.982 195.611C410.1 195.727 410.167 195.885 410.17 196.05Z" fill="url(#paint19_linear)"/>
<path d="M410.17 204.64C410.172 204.765 410.137 204.888 410.069 204.993C410.001 205.098 409.903 205.18 409.788 205.229C409.673 205.278 409.546 205.292 409.423 205.269C409.301 205.246 409.187 205.187 409.098 205.099C409.009 205.011 408.948 204.899 408.923 204.777C408.898 204.654 408.91 204.527 408.957 204.411C409.005 204.296 409.085 204.197 409.189 204.127C409.293 204.057 409.415 204.02 409.54 204.02C409.705 204.02 409.864 204.085 409.982 204.201C410.1 204.317 410.167 204.475 410.17 204.64Z" fill="url(#paint20_linear)"/>
<path d="M410.17 213.85C410.172 213.975 410.137 214.098 410.069 214.203C410.001 214.308 409.903 214.39 409.788 214.439C409.673 214.488 409.546 214.502 409.423 214.479C409.301 214.456 409.187 214.397 409.098 214.309C409.009 214.221 408.948 214.109 408.923 213.987C408.898 213.864 408.91 213.737 408.957 213.621C409.005 213.506 409.085 213.407 409.189 213.337C409.293 213.267 409.415 213.23 409.54 213.23C409.705 213.23 409.864 213.295 409.982 213.411C410.1 213.527 410.167 213.685 410.17 213.85Z" fill="url(#paint21_linear)"/>
<path d="M410.17 223.06C410.151 223.212 410.077 223.352 409.962 223.453C409.847 223.555 409.698 223.611 409.545 223.611C409.392 223.611 409.244 223.555 409.129 223.453C409.013 223.352 408.939 223.212 408.92 223.06C408.939 222.908 409.013 222.768 409.129 222.667C409.244 222.565 409.392 222.509 409.545 222.509C409.698 222.509 409.847 222.565 409.962 222.667C410.077 222.768 410.151 222.908 410.17 223.06Z" fill="url(#paint22_linear)"/>
<path d="M594.75 167.94L612.26 178.04L542.24 218.47L524.73 208.36L594.75 167.94Z" fill="url(#paint23_linear)"/>
<path d="M612.26 180.43V178.04L542.24 218.47V220.86L612.26 180.43Z" fill="url(#paint24_linear)"/>
<path d="M524.73 208.36V210.75L542.24 220.86V218.47L524.73 208.36Z" fill="url(#paint25_linear)"/>
<path style="mix-blend-mode:multiply" opacity="0.7" d="M214.75 317.18L249.7 325.62L352.29 263.02L351.67 247.03L214.75 317.18Z" fill="url(#paint26_linear)"/>
<path d="M334.87 146.71L214.75 216.06V317.18L335.17 246.69L334.87 146.71Z" fill="url(#paint27_linear)"/>
<path d="M214.75 216.06L282.54 237.44L334.87 146.71L214.75 216.06Z" fill="url(#paint28_linear)"/>
<path d="M343.43 146.71L223.31 216.06V317.18L343.73 246.69L343.43 146.71Z" fill="url(#paint29_linear)"/>
<path d="M223.31 216.06L291.1 237.44L343.43 146.71L223.31 216.06Z" fill="url(#paint30_linear)"/>
<path d="M351.37 147.05L231.25 216.4V317.52L351.67 247.03L351.37 147.05Z" fill="url(#paint31_linear)"/>
<path d="M231.25 216.4L299.04 237.77L351.37 147.05L231.25 216.4Z" fill="url(#paint32_linear)"/>
<path d="M594.75 194.4L612.26 204.5L542.24 244.93L524.73 234.83L594.75 194.4Z" fill="url(#paint33_linear)"/>
<path d="M612.26 206.9V204.5L542.24 244.93V247.32L612.26 206.9Z" fill="url(#paint34_linear)"/>
<path d="M524.73 234.83V237.22L542.24 247.32V244.93L524.73 234.83Z" fill="url(#paint35_linear)"/>
<path d="M382.19 149.74L389.37 153.88L360.64 170.47L353.46 166.32L382.19 149.74Z" fill="url(#paint36_linear)"/>
<path d="M389.37 154.87V153.88L360.64 170.47V171.45L389.37 154.87Z" fill="url(#paint37_linear)"/>
<path d="M353.46 166.32V167.31L360.64 171.45V170.47L353.46 166.32Z" fill="url(#paint38_linear)"/>
<path d="M382.19 160.6L389.37 164.74L360.64 181.33L353.46 177.18L382.19 160.6Z" fill="url(#paint39_linear)"/>
<path d="M389.37 165.72V164.74L360.64 181.33V182.31L389.37 165.72Z" fill="url(#paint40_linear)"/>
<path d="M353.46 177.18V178.16L360.64 182.31V181.33L353.46 177.18Z" fill="url(#paint41_linear)"/>
<path d="M353.38 196.05L374.88 183.64L396.39 196.05L374.88 208.47L353.38 196.05Z" fill="url(#paint42_linear)"/>
<path d="M353.38 237.44V196.05L374.88 208.47V249.85L353.38 237.44Z" fill="url(#paint43_linear)"/>
<path d="M396.39 196.05V237.44L374.88 249.85V208.47L396.39 196.05Z" fill="url(#paint44_linear)"/>
<path d="M395.22 199.93V207.28L376.05 218.35V211L395.22 199.93Z" fill="url(#paint45_linear)"/>
<path d="M395.22 209.14V216.49L376.05 227.56V220.21L395.22 209.14Z" fill="url(#paint46_linear)"/>
<path d="M395.22 218.35V225.69L376.05 236.76V229.42L395.22 218.35Z" fill="url(#paint47_linear)"/>
<path d="M395.22 227.56V234.9L376.05 245.97V238.63L395.22 227.56Z" fill="url(#paint48_linear)"/>
<path d="M387.5 209.14C387.5 209.304 387.435 209.462 387.318 209.578C387.202 209.695 387.044 209.76 386.88 209.76C386.716 209.76 386.558 209.695 386.442 209.578C386.325 209.462 386.26 209.304 386.26 209.14C386.26 208.976 386.325 208.818 386.442 208.702C386.558 208.585 386.716 208.52 386.88 208.52C387.044 208.52 387.202 208.585 387.318 208.702C387.435 208.818 387.5 208.976 387.5 209.14Z" fill="url(#paint49_linear)"/>
<path d="M387.5 217.73C387.5 217.894 387.435 218.052 387.318 218.168C387.202 218.285 387.044 218.35 386.88 218.35C386.716 218.35 386.558 218.285 386.442 218.168C386.325 218.052 386.26 217.894 386.26 217.73C386.259 217.648 386.274 217.567 386.304 217.491C386.335 217.415 386.381 217.346 386.439 217.289C386.496 217.231 386.565 217.185 386.641 217.154C386.717 217.124 386.798 217.109 386.88 217.11C387.044 217.11 387.202 217.175 387.318 217.292C387.435 217.408 387.5 217.566 387.5 217.73Z" fill="url(#paint50_linear)"/>
<path d="M387.5 226.94C387.5 227.104 387.435 227.262 387.318 227.378C387.202 227.495 387.044 227.56 386.88 227.56C386.728 227.541 386.588 227.467 386.487 227.352C386.385 227.236 386.329 227.088 386.329 226.935C386.329 226.782 386.385 226.634 386.487 226.518C386.588 226.403 386.728 226.329 386.88 226.31C387.045 226.313 387.203 226.38 387.319 226.498C387.435 226.616 387.5 226.775 387.5 226.94Z" fill="url(#paint51_linear)"/>
<path d="M387.5 236.14C387.5 236.221 387.484 236.302 387.453 236.377C387.422 236.452 387.376 236.521 387.318 236.578C387.261 236.636 387.192 236.682 387.117 236.713C387.042 236.744 386.961 236.76 386.88 236.76C386.798 236.761 386.717 236.746 386.641 236.716C386.565 236.685 386.496 236.639 386.439 236.581C386.381 236.524 386.335 236.455 386.304 236.379C386.274 236.303 386.259 236.222 386.26 236.14C386.26 235.976 386.325 235.818 386.442 235.702C386.558 235.585 386.716 235.52 386.88 235.52C387.044 235.52 387.202 235.585 387.318 235.702C387.435 235.818 387.5 235.976 387.5 236.14Z" fill="url(#paint52_linear)"/>
<path d="M390.09 170.52L394.15 180.64C395.231 179.134 396.588 177.848 398.15 176.85C400.91 174.97 393.9 170.98 393.9 170.98L390.09 170.52Z" fill="url(#paint53_linear)"/>
<path style="mix-blend-mode:multiply" opacity="0.7" d="M407.6 261.64C416.928 261.64 424.49 259.37 424.49 256.57C424.49 253.77 416.928 251.5 407.6 251.5C398.272 251.5 390.71 253.77 390.71 256.57C390.71 259.37 398.272 261.64 407.6 261.64Z" fill="url(#paint54_linear)"/>
<path d="M395.85 256.5L401.48 256.56L401.75 253.09L404.33 219.37L404.44 217.88L405.51 203.88L405.75 200.85L405.01 201.23L401.11 203.24L400.31 203.65L400.15 219.69L399.81 253.83L395.85 256.5Z" fill="url(#paint55_linear)"/>
<path d="M401.02 202.84L401.11 203.24L404.44 217.88L404.77 219.31L411.9 250.6L410.53 253.81L407.6 256.57L412.66 256.51L414.67 251.34L408.44 219.04L405.51 203.88L405.01 201.23L404.93 200.84L401.02 202.84Z" fill="url(#paint56_linear)"/>
<path d="M368.41 200.07L365.17 201.61C364.732 201.817 364.347 202.12 364.044 202.498C363.74 202.876 363.527 203.318 363.42 203.79L364.42 204.45L366.21 203.61L368.41 200.07Z" fill="url(#paint57_linear)"/>
<path d="M394.57 182.05L395.19 189.4C395.77 191.4 398.1 195.61 397.77 197.64L396.44 206C396.44 206 398.85 220 400.52 219.86C402.81 219.65 404.67 219.21 407.47 219.07C408.604 219.01 409.709 218.69 410.699 218.134C411.69 217.577 412.538 216.801 413.179 215.863C413.821 214.926 414.237 213.854 414.397 212.729C414.557 211.605 414.455 210.459 414.1 209.38C412.51 204.58 410.35 199.38 407.84 196.88C401.79 190.88 408.68 182.61 408.68 182.61L403.16 177.76L394.57 182.05Z" fill="url(#paint58_linear)"/>
<path d="M392.51 183.23L383.64 192.83L365.29 201.56L383.88 195.33L395.81 185.55L395.67 184.27C395.631 183.922 395.493 183.592 395.272 183.321C395.051 183.049 394.756 182.846 394.424 182.736C394.091 182.627 393.734 182.615 393.394 182.703C393.055 182.79 392.748 182.973 392.51 183.23Z" fill="url(#paint59_linear)"/>
<path d="M391.71 184.1L391.11 189.4L396.21 187.63L401.33 182.29L397.93 181.18C397.124 180.916 396.26 180.889 395.439 181.101C394.618 181.314 393.876 181.758 393.3 182.38L391.71 184.1Z" fill="url(#paint60_linear)"/>
<path d="M389.48 173.3C389.48 173.3 391.18 173.46 391.78 172.71C391.78 172.71 396.18 177.87 395.07 179.71L396.07 179.17C396.18 178.226 396.055 177.268 395.706 176.384C395.357 175.499 394.795 174.715 394.07 174.1C394.07 174.1 396.87 171.47 396.63 176.46C396.63 176.46 396.93 193.46 406.14 189.6C406.14 189.6 404.98 188.55 410.72 186.42C416.46 184.29 418.52 179.59 406.26 173.74C396 168.84 395.49 164.18 389.4 170.55C389.34 170.57 387 172.08 389.48 173.3Z" fill="#1D1D1B"/>
<path d="M414.26 249.2L411.9 250.6L410.53 253.81L407.6 256.57L412.66 256.51L414.67 251.34L414.26 249.2Z" fill="#3C3C3B"/>
<path d="M395.85 256.5L401.48 256.56L401.75 253.09L399.81 253.83L395.85 256.5Z" fill="#3C3C3B"/>
<path d="M413.3 345.26L405.9 339.84L396.9 333.26L396.08 309.32L395.89 304.01C395.89 304.01 396.37 306.13 397.2 309.32C399.2 316.97 403.2 330.82 407.53 336.76C408.81 338.52 410.11 339.59 411.4 339.61C418.92 339.74 413.3 345.26 413.3 345.26Z" fill="url(#paint61_linear)"/>
<path d="M407.55 336.76L405.9 339.84L396.9 333.26L396.08 309.32H397.2C399.21 317 403.21 330.82 407.55 336.76Z" fill="url(#paint62_linear)"/>
<path d="M420.44 378.28L413.29 373.93L412.83 371.9L407.6 349.06L400.82 344.8L390.39 338.25V331.63L397.14 330.16L411.84 344.93L415 370.87L415.18 372.36L420.44 378.28Z" fill="url(#paint63_linear)"/>
<path d="M390.39 338.25L407.61 349.06L411.47 365.96H416.72L413.29 345.26L397.14 330.16L390.39 331.63V338.25Z" fill="#1D1D1B"/>
<path d="M413.52 382.26L406.38 377.92L405.77 375.26L400.69 353L386.06 343.82C385.268 343.323 384.614 342.632 384.161 341.814C383.709 340.995 383.471 340.075 383.47 339.14V335.57L390.22 334.1L390.39 334.27L400.82 344.76L404.92 348.88L408 374.2L408.27 376.34L413.52 382.26Z" fill="url(#paint64_linear)"/>
<path d="M386.06 343.86L400.69 353L404.55 370H409.8L406.38 349.3L399.19 342.58C398.132 341.588 397.344 340.344 396.9 338.963C396.456 337.583 396.37 336.113 396.65 334.69L396.93 333.3L390.22 334.19L383.47 335.66V339.22C383.477 340.149 383.718 341.061 384.171 341.871C384.624 342.682 385.273 343.366 386.06 343.86Z" fill="#3C3C3B"/>
<path d="M395 302.59L383.47 309.33C383.47 309.33 387.89 312.33 387.89 314.14V338L398.89 332.2L399.13 310.34V309.92C399.146 308.436 398.766 306.975 398.03 305.686C397.293 304.398 396.227 303.329 394.94 302.59H395Z" fill="url(#paint65_linear)"/>
<path d="M406.38 347V349.28L406.21 349.84C406.058 350.341 405.746 350.778 405.322 351.085C404.898 351.392 404.385 351.552 403.862 351.54C403.339 351.529 402.834 351.347 402.424 351.022C402.013 350.697 401.721 350.247 401.59 349.74L400.59 345.74L399.59 344.92C397.943 344.59 396.32 344.153 394.73 343.61C372.27 335.86 382.19 312.2 383.36 309.61V309.55L383.45 309.37C384.585 309.475 385.685 309.816 386.68 310.37C388.43 311.37 390.09 313.37 389.21 317.37C388.06 322.65 395.88 334.55 400.21 341.12L401.55 343.19L404.81 344.62C405.271 344.827 405.663 345.16 405.941 345.582C406.219 346.003 406.371 346.495 406.38 347Z" fill="url(#paint66_linear)"/>
<path d="M400.18 341L394.71 343.52C375.1 336.75 379.92 317.3 382.23 310.75C382.433 310.173 382.8 309.668 383.287 309.298C383.775 308.928 384.36 308.71 384.97 308.67L385.9 308.61C387.66 309.61 391.04 313.14 390.17 317.14C389 322.45 395.88 334.47 400.18 341Z" fill="url(#paint67_linear)"/>
<path d="M408.26 376.34L413.52 382.26L406.38 377.92L405.77 375.26L408 374.2L408.26 376.34Z" fill="#1D1D1B"/>
<path d="M413.29 373.93L412.83 371.9L415 370.87L415.18 372.36L420.44 378.28L413.29 373.93Z" fill="#1D1D1B"/>
<path d="M388.73 302.46V306.23V306.52C388.759 307.176 388.95 307.815 389.285 308.38C389.62 308.945 390.089 309.419 390.65 309.76L392.52 310.89L393.83 311.61C394.66 312.06 395.64 310.8 395.83 309.87C395.83 309.87 395.83 307.78 394.73 307.12L392.67 305.51V303L388.73 302.46Z" fill="url(#paint68_linear)"/>
<path d="M384.83 303.63L385.17 302.55L383.31 296.5C395.31 286.72 393.84 302 393.84 302L386.9 308.18L385.44 303.44L384.83 303.63Z" fill="url(#paint69_linear)"/>
<path d="M384.77 293.72C382.37 294.32 382.26 298.36 383.51 297.95C387.42 296.68 388.73 299.03 388.73 299.03L390.15 299.31L390.74 301.22C390.74 301.22 391.69 296 392.44 299.77C392.57 300.351 392.537 300.956 392.344 301.518C392.152 302.081 391.808 302.58 391.35 302.96L392.64 303.07L393.84 302C393.84 302 396.66 290.92 390.12 292.44C386.79 293.22 386.62 293.25 384.77 293.72Z" fill="url(#paint70_linear)"/>
<path d="M390.32 299.51L389.88 304.66L388.19 306.2L387.07 304.08L385.44 303.44L385.77 304.51H386.73L387.57 306.57L386.65 307.38L386.9 308.18L391.44 304.13L390.32 299.51Z" fill="url(#paint71_linear)"/>
<path style="mix-blend-mode:multiply" opacity="0.7" d="M563 186.53C563 186.53 565.36 200.35 574.61 199.23L604 182C607.58 180.06 607 176.6 603.57 174.46L599.96 172.22L563 186.53Z" fill="url(#paint72_linear)"/>
<path d="M592.96 160.72V157.1L602.37 162.53L599.21 164.36L592.96 160.72Z" fill="url(#paint73_linear)"/>
<path d="M602.37 169.31V162.53L571 180.65V191.51L598.83 175.44C599.907 174.819 600.801 173.926 601.422 172.85C602.044 171.774 602.371 170.553 602.37 169.31Z" fill="url(#paint74_linear)"/>
<path d="M565 188.06L571 191.51V180.65L561.59 175.21V182.12C561.588 183.322 561.902 184.504 562.501 185.546C563.099 186.589 563.961 187.455 565 188.06Z" fill="url(#paint75_linear)"/>
<path d="M561.59 175.21L592.96 157.1V160.72L564.72 177.02L561.59 175.21Z" fill="url(#paint76_linear)"/>
<path d="M599.21 164.36L592.96 160.72L564.72 177.02L571 180.65L599.21 164.36Z" fill="#FFCC88"/>
<path d="M593 165.89C593 165.89 590.47 158.81 585.2 161.01C579.93 163.21 586.57 168.64 579.39 165.01C572.21 161.38 573.89 176.8 573.89 176.8L593 165.89Z" fill="url(#paint77_linear)"/>
<path d="M595.27 164.57C595.27 164.57 595 155.27 590.76 155.74C586.52 156.21 592.33 170.69 586.41 164.5C580.49 158.31 582.15 171.58 576.23 169.96C570.31 168.34 566.43 158.96 566.06 169.06C565.69 179.16 570.97 178.39 570.97 178.39L595.27 164.57Z" fill="url(#paint78_linear)"/>
<path style="mix-blend-mode:multiply" opacity="0.7" d="M551.63 206.45C551.63 208.55 548.63 210.25 544.85 210.25C541.07 210.25 538.06 208.55 538.06 206.45C538.06 204.35 541.06 202.64 544.85 202.64C548.64 202.64 551.63 204.35 551.63 206.45Z" fill="url(#paint79_linear)"/>
<path d="M536 185.8L536.26 186.26C537.86 189.083 538.402 192.383 537.79 195.57L536.63 201.57C536.441 202.585 536.572 203.634 537.003 204.573C537.435 205.511 538.146 206.292 539.04 206.81C539.794 207.24 540.647 207.466 541.515 207.466C542.383 207.466 543.236 207.24 543.99 206.81C544.878 206.29 545.584 205.509 546.012 204.573C546.44 203.637 546.568 202.592 546.38 201.58L545.23 195.58C544.617 192.366 545.174 189.039 546.8 186.2L547.05 185.77L536 185.8Z" fill="url(#paint80_linear)"/>
<path d="M547 185.8C547 186.32 546.15 186.8 544.84 187.08C542.615 187.52 540.325 187.52 538.1 187.08C536.79 186.79 535.94 186.32 535.94 185.8C535.94 184.91 538.41 184.19 541.47 184.19C544.53 184.19 547 184.91 547 185.8Z" fill="url(#paint81_linear)"/>
<path d="M544.85 187.07C542.625 187.51 540.335 187.51 538.11 187.07C538.11 186.52 539.62 186.07 541.48 186.07C543.34 186.07 544.85 186.52 544.85 187.07Z" fill="#FFCC88"/>
<path d="M542.72 186.91C542.72 186.91 545.81 146.7 540.38 145.85C534.95 145 541.03 186.85 541.03 186.85L542.72 186.91Z" fill="url(#paint82_linear)"/>
<path d="M539.47 186.91C539.47 186.91 529.11 156.66 534.29 155.16C539.47 153.66 541.78 186.91 541.78 186.91H539.47Z" fill="url(#paint83_linear)"/>
<path d="M542.72 186.91C542.72 186.91 549.42 167.32 546.07 166.35C542.72 165.38 541.22 186.91 541.22 186.91H542.72Z" fill="url(#paint84_linear)"/>
<path d="M480.87 50.29V222.25L495.81 213.85L495.29 64.78L510.22 55.94V33.35L480.87 50.29Z" fill="url(#paint85_linear)"/>
<path d="M485.5 52.75V224.71L500.43 216.31L499.91 67.24L541.54 43.05V20.46L485.5 52.75Z" fill="url(#paint86_linear)"/>
<path d="M480.87 50.29L485.5 52.75L541.54 20.46L536.91 18L480.87 50.29Z" fill="url(#paint87_linear)"/>
<path d="M485.5 224.71L480.87 222.25V50.29L485.5 52.75V224.71Z" fill="url(#paint88_linear)"/>
<path d="M511.2 215.94C511.2 197.94 498.46 190.6 482.89 199.59C467.32 208.58 454.58 230.65 454.58 248.59C454.58 266.53 467.32 274 482.89 265C498.46 256 511.2 233.92 511.2 215.94Z" fill="url(#paint89_linear)"/>
<path d="M517.05 221.39C517.05 205.78 505.99 199.39 492.47 207.2C478.95 215.01 467.89 234.2 467.89 249.78C467.89 265.36 478.95 271.78 492.47 263.97C505.99 256.16 517.05 237 517.05 221.39Z" fill="url(#paint90_linear)"/>
<path d="M234.69 273.5L249.35 263.81L238.25 255.04L225.86 271.46L232.14 276.58L234.69 273.5Z" fill="url(#paint91_linear)"/>
<path d="M216.69 262.42C216.69 262.42 229.05 252.83 231.59 237.74L230.59 233.16L232.24 235.31L234.12 230.62L235.66 238.36L233.66 239.21C233.66 239.21 227.41 267.54 217.82 264.36C214.64 263.29 216.69 262.42 216.69 262.42Z" fill="url(#paint92_linear)"/>
<path d="M217.34 335.9L211.65 336.72L216.39 311.57L217.6 305.16L220.68 288.84L216.62 283.67C216.62 283.67 216.14 284.33 215.5 285.38C213.87 288.03 211.22 293.13 212.79 296.08L212.2 304.26L209.84 337L209.59 340.39L217.34 335.9Z" fill="url(#paint93_linear)"/>
<path d="M222.54 255.66C222.54 255.66 218.91 258.6 219.81 260.52L214.42 261.66L217 254.2L222.54 255.66Z" fill="url(#paint94_linear)"/>
<path d="M222.67 253.26L221.59 252.81L219.44 247.42C203.44 247.79 217.3 258.01 217.3 258.01L223.43 257.42L221.89 253.57L222.67 253.26Z" fill="url(#paint95_linear)"/>
<path d="M215.14 279C215.365 280.554 215.488 282.12 215.51 283.69C215.51 284.26 215.51 284.83 215.51 285.4C215.51 287.63 215.33 289.94 215.43 293.19C215.56 297.44 215.78 301.79 216.04 306.07C216.15 307.93 216.27 309.78 216.4 311.59C216.98 319.75 217.62 327.96 218.19 334.31C218.28 335.38 218.38 336.41 218.47 337.37C218.62 338.96 218.77 340.37 218.9 341.57L218.78 342.57L218.6 344C218.57 344.247 218.61 344.497 218.715 344.723C218.819 344.949 218.985 345.141 219.192 345.278C219.4 345.415 219.642 345.491 219.89 345.499C220.139 345.506 220.385 345.444 220.6 345.32L227.6 341.27L219.9 341.68L220.24 335.96V335.11L222.16 302.56V302.48L224.01 271.13C224.729 270.384 225.141 269.396 225.165 268.36C225.189 267.325 224.823 266.318 224.14 265.54L219.74 260.54L214.35 261.68C214.239 262.055 214.149 262.435 214.08 262.82C213.47 266.67 214.23 272.8 215.14 279Z" fill="url(#paint96_linear)"/>
<path d="M211.56 293.63C212.234 296.756 212.476 299.959 212.28 303.15L212.2 304.26L214.39 305.26C214.897 305.496 215.452 305.608 216.011 305.585C216.569 305.562 217.114 305.406 217.6 305.13L222.23 302.51V302.42L224.08 271.08C224.801 270.335 225.214 269.346 225.238 268.31C225.263 267.274 224.895 266.267 224.21 265.49L219.81 260.49L214.42 261.63C214.42 261.63 211.3 265 212.2 271.17C212.38 272.35 213.28 282.74 212.41 284.62C211.312 287.49 211.018 290.605 211.56 293.63Z" fill="url(#paint97_linear)"/>
<path d="M217.14 275.86C218.47 285.8 222.96 294.26 237 275.56V272.07L234.69 273.5L232.37 272.07L233.58 274.14C233.58 274.14 225 291.61 221.17 269.8C221.07 269.26 220.99 268.7 220.9 268.12L218.47 264.27C218.352 264.1 218.184 263.97 217.989 263.899C217.795 263.828 217.583 263.82 217.383 263.875C217.183 263.93 217.005 264.045 216.874 264.206C216.743 264.366 216.664 264.563 216.65 264.77C216.534 268.474 216.697 272.181 217.14 275.86Z" fill="url(#paint98_linear)"/>
<path d="M216.62 278.12C216.669 277.343 216.845 276.58 217.14 275.86C218.146 273.642 219.496 271.597 221.14 269.8C221.04 269.26 220.96 268.7 220.87 268.12L219.33 262.3C219.33 262.3 216.89 261.66 215.24 264.61C212.17 273.06 216.62 278.12 216.62 278.12Z" fill="url(#paint99_linear)"/>
<path d="M220.58 247.42C220.58 247.42 220.83 251.13 218.74 251.13C218.74 251.13 217.96 260.24 219.24 259.96C219.24 259.96 209.24 262.84 209.24 258.65C209.289 256.765 209.483 254.886 209.82 253.03C210.062 251.366 210.853 249.83 212.066 248.665C213.28 247.5 214.847 246.774 216.52 246.6C218.7 246.42 220.66 246.51 220.58 247.42Z" fill="#1D1D1B"/>
<path d="M219.65 345.86L227.65 341.25L219.95 341.66C219.95 341.66 222.76 344.08 218.8 342.58L218.49 345.07C218.476 345.213 218.501 345.357 218.562 345.487C218.623 345.617 218.717 345.728 218.836 345.809C218.955 345.889 219.093 345.937 219.236 345.946C219.379 345.955 219.522 345.925 219.65 345.86Z" fill="#1D1D1B"/>
<path d="M209.59 340.38L217.34 335.9L211.65 336.72C211.65 337.95 209.91 336.99 209.91 336.99H209.84L209.59 340.38Z" fill="#1D1D1B"/>
<path style="mix-blend-mode:multiply" opacity="0.7" d="M217.34 346.32C226.668 346.32 234.23 344.05 234.23 341.25C234.23 338.45 226.668 336.18 217.34 336.18C208.012 336.18 200.45 338.45 200.45 341.25C200.45 344.05 208.012 346.32 217.34 346.32Z" fill="url(#paint100_linear)"/>
</g>
<defs>
<filter id="filter0_ddd" x="3" y="492.422" width="136.208" height="168.578" filterUnits="userSpaceOnUse" color-interpolation-filters="sRGB">
<feFlood flood-opacity="0" result="BackgroundImageFix"/>
<feColorMatrix in="SourceAlpha" type="matrix" values="0 0 0 0 0 0 0 0 0 0 0 0 0 0 0 0 0 0 127 0"/>
<feOffset dy="2"/>
<feGaussianBlur stdDeviation="2"/>
<feColorMatrix type="matrix" values="0 0 0 0 0 0 0 0 0 0 0 0 0 0 0 0 0 0 0.14 0"/>
<feBlend mode="normal" in2="BackgroundImageFix" result="effect1_dropShadow"/>
<feColorMatrix in="SourceAlpha" type="matrix" values="0 0 0 0 0 0 0 0 0 0 0 0 0 0 0 0 0 0 127 0"/>
<feOffset dy="1"/>
<feGaussianBlur stdDeviation="2.5"/>
<feColorMatrix type="matrix" values="0 0 0 0 0 0 0 0 0 0 0 0 0 0 0 0 0 0 0.2 0"/>
<feBlend mode="normal" in2="effect1_dropShadow" result="effect2_dropShadow"/>
<feColorMatrix in="SourceAlpha" type="matrix" values="0 0 0 0 0 0 0 0 0 0 0 0 0 0 0 0 0 0 127 0"/>
<feOffset dy="3"/>
<feGaussianBlur stdDeviation="2"/>
<feColorMatrix type="matrix" values="0 0 0 0 0 0 0 0 0 0 0 0 0 0 0 0 0 0 0.12 0"/>
<feBlend mode="normal" in2="effect2_dropShadow" result="effect3_dropShadow"/>
<feBlend mode="normal" in="SourceGraphic" in2="effect3_dropShadow" result="shape"/>
</filter>
<filter id="filter1_ddd" x="24" y="549.761" width="72.3844" height="89.7388" filterUnits="userSpaceOnUse" color-interpolation-filters="sRGB">
<feFlood flood-opacity="0" result="BackgroundImageFix"/>
<feColorMatrix in="SourceAlpha" type="matrix" values="0 0 0 0 0 0 0 0 0 0 0 0 0 0 0 0 0 0 127 0"/>
<feOffset dy="3"/>
<feGaussianBlur stdDeviation="2"/>
<feColorMatrix type="matrix" values="0 0 0 0 0 0 0 0 0 0 0 0 0 0 0 0 0 0 0.12 0"/>
<feBlend mode="normal" in2="BackgroundImageFix" result="effect1_dropShadow"/>
<feColorMatrix in="SourceAlpha" type="matrix" values="0 0 0 0 0 0 0 0 0 0 0 0 0 0 0 0 0 0 127 0"/>
<feOffset dy="1"/>
<feGaussianBlur stdDeviation="2.5"/>
<feColorMatrix type="matrix" values="0 0 0 0 0 0 0 0 0 0 0 0 0 0 0 0 0 0 0.2 0"/>
<feBlend mode="normal" in2="effect1_dropShadow" result="effect2_dropShadow"/>
<feColorMatrix in="SourceAlpha" type="matrix" values="0 0 0 0 0 0 0 0 0 0 0 0 0 0 0 0 0 0 127 0"/>
<feOffset dy="2"/>
<feGaussianBlur stdDeviation="2"/>
<feColorMatrix type="matrix" values="0 0 0 0 0 0 0 0 0 0 0 0 0 0 0 0 0 0 0.14 0"/>
<feBlend mode="normal" in2="effect2_dropShadow" result="effect3_dropShadow"/>
<feBlend mode="normal" in="SourceGraphic" in2="effect3_dropShadow" result="shape"/>
</filter>
<filter id="filter2_ddd" x="2.62439" y="-66" width="794.376" height="760.996" filterUnits="userSpaceOnUse" color-interpolation-filters="sRGB">
<feFlood flood-opacity="0" result="BackgroundImageFix"/>
<feColorMatrix in="SourceAlpha" type="matrix" values="0 0 0 0 0 0 0 0 0 0 0 0 0 0 0 0 0 0 127 0"/>
<feOffset dy="2"/>
<feGaussianBlur stdDeviation="2"/>
<feColorMatrix type="matrix" values="0 0 0 0 0 0 0 0 0 0 0 0 0 0 0 0 0 0 0.14 0"/>
<feBlend mode="normal" in2="BackgroundImageFix" result="effect1_dropShadow"/>
<feColorMatrix in="SourceAlpha" type="matrix" values="0 0 0 0 0 0 0 0 0 0 0 0 0 0 0 0 0 0 127 0"/>
<feOffset dy="1"/>
<feGaussianBlur stdDeviation="2.5"/>
<feColorMatrix type="matrix" values="0 0 0 0 0 0 0 0 0 0 0 0 0 0 0 0 0 0 0.2 0"/>
<feBlend mode="normal" in2="effect1_dropShadow" result="effect2_dropShadow"/>
<feColorMatrix in="SourceAlpha" type="matrix" values="0 0 0 0 0 0 0 0 0 0 0 0 0 0 0 0 0 0 127 0"/>
<feOffset dy="3"/>
<feGaussianBlur stdDeviation="2"/>
<feColorMatrix type="matrix" values="0 0 0 0 0 0 0 0 0 0 0 0 0 0 0 0 0 0 0.12 0"/>
<feBlend mode="normal" in2="effect2_dropShadow" result="effect3_dropShadow"/>
<feBlend mode="normal" in="SourceGraphic" in2="effect3_dropShadow" result="shape"/>
</filter>
<filter id="filter3_ddd" x="43.6282" y="-31" width="715.372" height="685.996" filterUnits="userSpaceOnUse" color-interpolation-filters="sRGB">
<feFlood flood-opacity="0" result="BackgroundImageFix"/>
<feColorMatrix in="SourceAlpha" type="matrix" values="0 0 0 0 0 0 0 0 0 0 0 0 0 0 0 0 0 0 127 0"/>
<feOffset dy="2"/>
<feGaussianBlur stdDeviation="2"/>
<feColorMatrix type="matrix" values="0 0 0 0 0 0 0 0 0 0 0 0 0 0 0 0 0 0 0.14 0"/>
<feBlend mode="normal" in2="BackgroundImageFix" result="effect1_dropShadow"/>
<feColorMatrix in="SourceAlpha" type="matrix" values="0 0 0 0 0 0 0 0 0 0 0 0 0 0 0 0 0 0 127 0"/>
<feOffset dy="1"/>
<feGaussianBlur stdDeviation="2.5"/>
<feColorMatrix type="matrix" values="0 0 0 0 0 0 0 0 0 0 0 0 0 0 0 0 0 0 0.2 0"/>
<feBlend mode="normal" in2="effect1_dropShadow" result="effect2_dropShadow"/>
<feColorMatrix in="SourceAlpha" type="matrix" values="0 0 0 0 0 0 0 0 0 0 0 0 0 0 0 0 0 0 127 0"/>
<feOffset dy="3"/>
<feGaussianBlur stdDeviation="2"/>
<feColorMatrix type="matrix" values="0 0 0 0 0 0 0 0 0 0 0 0 0 0 0 0 0 0 0.12 0"/>
<feBlend mode="normal" in2="effect2_dropShadow" result="effect3_dropShadow"/>
<feBlend mode="normal" in="SourceGraphic" in2="effect3_dropShadow" result="shape"/>
</filter>
<linearGradient id="paint0_linear" x1="513.11" y1="224.84" x2="516.43" y2="249.19" gradientUnits="userSpaceOnUse">
<stop stop-color="#F6F6F6"/>
<stop offset="1" stop-color="#DCCCCA"/>
</linearGradient>
<linearGradient id="paint1_linear" x1="2.4535e+06" y1="-6837.85" x2="2.45287e+06" y2="-744.794" gradientUnits="userSpaceOnUse">
<stop stop-color="#F6F6F6"/>
<stop offset="1" stop-color="#DCCCCA"/>
</linearGradient>
<linearGradient id="paint2_linear" x1="1.59631e+06" y1="-10914.7" x2="1.597e+06" y2="-4910.97" gradientUnits="userSpaceOnUse">
<stop stop-color="#F6F6F6"/>
<stop offset="1" stop-color="#DCCCCA"/>
</linearGradient>
<linearGradient id="paint3_linear" x1="41016.6" y1="54775.6" x2="52008.6" y2="60919.3" gradientUnits="userSpaceOnUse">
<stop stop-color="#F6F6F6"/>
<stop offset="1" stop-color="#DCCCCA"/>
</linearGradient>
<linearGradient id="paint4_linear" x1="56076.2" y1="49874" x2="56076.2" y2="47498.6" gradientUnits="userSpaceOnUse">
<stop stop-color="#F6F6F6"/>
<stop offset="1" stop-color="#DCCCCA"/>
</linearGradient>
<linearGradient id="paint5_linear" x1="54124.8" y1="60871.8" x2="53994" y2="58292.4" gradientUnits="userSpaceOnUse">
<stop stop-color="#F6F6F6"/>
<stop offset="1" stop-color="#DCCCCA"/>
</linearGradient>
<linearGradient id="paint6_linear" x1="473.75" y1="634.33" x2="473.75" y2="588" gradientUnits="userSpaceOnUse">
<stop stop-color="#FAD6C7"/>
<stop offset="1" stop-color="#E4857F"/>
</linearGradient>
<linearGradient id="paint7_linear" x1="116612" y1="-3541.05" x2="56104.3" y2="90350.6" gradientUnits="userSpaceOnUse">
<stop stop-color="#F6F6F6"/>
<stop offset="1" stop-color="#DCCCCA"/>
</linearGradient>
<linearGradient id="paint8_linear" x1="27255.4" y1="32285.3" x2="16011.7" y2="65394.3" gradientUnits="userSpaceOnUse">
<stop stop-color="#F6F6F6"/>
<stop offset="1" stop-color="#DCCCCA"/>
</linearGradient>
<linearGradient id="paint9_linear" x1="23395" y1="21462.9" x2="23570.5" y2="18757" gradientUnits="userSpaceOnUse">
<stop stop-color="#FAD6C7"/>
<stop offset="1" stop-color="#E4857F"/>
</linearGradient>
<linearGradient id="paint10_linear" x1="29747.5" y1="62301.9" x2="29747.5" y2="60467.8" gradientUnits="userSpaceOnUse">
<stop stop-color="#FAD6C7"/>
<stop offset="1" stop-color="#E4857F"/>
</linearGradient>
<linearGradient id="paint11_linear" x1="-296.77" y1="102312" x2="45975" y2="39903.6" gradientUnits="userSpaceOnUse">
<stop stop-color="#FAD6C7"/>
<stop offset="1" stop-color="#E4857F"/>
</linearGradient>
<linearGradient id="paint12_linear" x1="10557.2" y1="4106.85" x2="8976.81" y2="4778.85" gradientUnits="userSpaceOnUse">
<stop stop-color="#F6F6F6"/>
<stop offset="1" stop-color="#DCCCCA"/>
</linearGradient>
<linearGradient id="paint13_linear" x1="5046.92" y1="10272.9" x2="4431.87" y2="10333.3" gradientUnits="userSpaceOnUse">
<stop stop-color="#F6F6F6"/>
<stop offset="1" stop-color="#DCCCCA"/>
</linearGradient>
<linearGradient id="paint14_linear" x1="5610.66" y1="10223.9" x2="4864.47" y2="10297.1" gradientUnits="userSpaceOnUse">
<stop stop-color="#F6F6F6"/>
<stop offset="1" stop-color="#DCCCCA"/>
</linearGradient>
<linearGradient id="paint15_linear" x1="407.3" y1="237.56" x2="408.52" y2="187.03" gradientUnits="userSpaceOnUse">
<stop stop-color="#A1D9D6"/>
<stop offset="1" stop-color="#00A19A"/>
</linearGradient>
<linearGradient id="paint16_linear" x1="4626.28" y1="4240.34" x2="4647.7" y2="3309.54" gradientUnits="userSpaceOnUse">
<stop stop-color="#A1D9D6"/>
<stop offset="1" stop-color="#00A19A"/>
</linearGradient>
<linearGradient id="paint17_linear" x1="4630.5" y1="4249.74" x2="4651.91" y2="3318.94" gradientUnits="userSpaceOnUse">
<stop stop-color="#A1D9D6"/>
<stop offset="1" stop-color="#00A19A"/>
</linearGradient>
<linearGradient id="paint18_linear" x1="4634.71" y1="4258.95" x2="4656.13" y2="3328.15" gradientUnits="userSpaceOnUse">
<stop stop-color="#A1D9D6"/>
<stop offset="1" stop-color="#00A19A"/>
</linearGradient>
<linearGradient id="paint19_linear" x1="689.208" y1="427.826" x2="689.271" y2="423.454" gradientUnits="userSpaceOnUse">
<stop stop-color="#FAD6C7"/>
<stop offset="1" stop-color="#E4857F"/>
</linearGradient>
<linearGradient id="paint20_linear" x1="689.208" y1="447.237" x2="689.271" y2="442.852" gradientUnits="userSpaceOnUse">
<stop stop-color="#FAD6C7"/>
<stop offset="1" stop-color="#E4857F"/>
</linearGradient>
<linearGradient id="paint21_linear" x1="689.208" y1="468.054" x2="689.271" y2="463.669" gradientUnits="userSpaceOnUse">
<stop stop-color="#FAD6C7"/>
<stop offset="1" stop-color="#E4857F"/>
</linearGradient>
<linearGradient id="paint22_linear" x1="686.995" y1="455.424" x2="687.044" y2="451.601" gradientUnits="userSpaceOnUse">
<stop stop-color="#FAD6C7"/>
<stop offset="1" stop-color="#E4857F"/>
</linearGradient>
<linearGradient id="paint23_linear" x1="158410" y1="10525.1" x2="158257" y2="9039.23" gradientUnits="userSpaceOnUse">
<stop stop-color="#A1D9D6"/>
<stop offset="1" stop-color="#00A19A"/>
</linearGradient>
<linearGradient id="paint24_linear" x1="126900" y1="8886.34" x2="126799" y2="7960.19" gradientUnits="userSpaceOnUse">
<stop stop-color="#A1D9D6"/>
<stop offset="1" stop-color="#00A19A"/>
</linearGradient>
<linearGradient id="paint25_linear" x1="29745.2" y1="2807.24" x2="29727.4" y2="2668.49" gradientUnits="userSpaceOnUse">
<stop stop-color="#A1D9D6"/>
<stop offset="1" stop-color="#00A19A"/>
</linearGradient>
<linearGradient id="paint26_linear" x1="10403.7" y1="26775.9" x2="10690.8" y2="25309.4" gradientUnits="userSpaceOnUse">
<stop stop-color="#F6F6F6"/>
<stop offset="1" stop-color="#DCCCCA"/>
</linearGradient>
<linearGradient id="paint27_linear" x1="15315.4" y1="44763.8" x2="7272.41" y2="37541.1" gradientUnits="userSpaceOnUse">
<stop stop-color="#F6F6F6"/>
<stop offset="1" stop-color="#DCCCCA"/>
</linearGradient>
<linearGradient id="paint28_linear" x1="10541.5" y1="14698" x2="11176.2" y2="16072.6" gradientUnits="userSpaceOnUse">
<stop stop-color="#F6F6F6"/>
<stop offset="1" stop-color="#DCCCCA"/>
</linearGradient>
<linearGradient id="paint29_linear" x1="16356" y1="44763.8" x2="8311.82" y2="37541.7" gradientUnits="userSpaceOnUse">
<stop stop-color="#F6F6F6"/>
<stop offset="1" stop-color="#DCCCCA"/>
</linearGradient>
<linearGradient id="paint30_linear" x1="11581.9" y1="14727" x2="12483.9" y2="16493.8" gradientUnits="userSpaceOnUse">
<stop stop-color="#F6F6F6"/>
<stop offset="1" stop-color="#DCCCCA"/>
</linearGradient>
<linearGradient id="paint31_linear" x1="17318.8" y1="44820.4" x2="9276.31" y2="37599.4" gradientUnits="userSpaceOnUse">
<stop stop-color="#F6F6F6"/>
<stop offset="1" stop-color="#DCCCCA"/>
</linearGradient>
<linearGradient id="paint32_linear" x1="12009" y1="14158.8" x2="17698.4" y2="25303.8" gradientUnits="userSpaceOnUse">
<stop stop-color="#F6F6F6"/>
<stop offset="1" stop-color="#DCCCCA"/>
</linearGradient>
<linearGradient id="paint33_linear" x1="158410" y1="11888.6" x2="158257" y2="10402.7" gradientUnits="userSpaceOnUse">
<stop stop-color="#A1D9D6"/>
<stop offset="1" stop-color="#00A19A"/>
</linearGradient>
<linearGradient id="paint34_linear" x1="126900" y1="10046.3" x2="126799" y2="9120.1" gradientUnits="userSpaceOnUse">
<stop stop-color="#A1D9D6"/>
<stop offset="1" stop-color="#00A19A"/>
</linearGradient>
<linearGradient id="paint35_linear" x1="29745.2" y1="3162.11" x2="29727.5" y2="3023.48" gradientUnits="userSpaceOnUse">
<stop stop-color="#A1D9D6"/>
<stop offset="1" stop-color="#00A19A"/>
</linearGradient>
<linearGradient id="paint36_linear" x1="57032.2" y1="3348.79" x2="57006.4" y2="3098.61" gradientUnits="userSpaceOnUse">
<stop stop-color="#A1D9D6"/>
<stop offset="1" stop-color="#00A19A"/>
</linearGradient>
<linearGradient id="paint37_linear" x1="45424.2" y1="2853.69" x2="45407.2" y2="2697.82" gradientUnits="userSpaceOnUse">
<stop stop-color="#A1D9D6"/>
<stop offset="1" stop-color="#00A19A"/>
</linearGradient>
<linearGradient id="paint38_linear" x1="10153.8" y1="964.136" x2="10150.8" y2="940.801" gradientUnits="userSpaceOnUse">
<stop stop-color="#A1D9D6"/>
<stop offset="1" stop-color="#00A19A"/>
</linearGradient>
<linearGradient id="paint39_linear" x1="57032.2" y1="3584.57" x2="57006.4" y2="3334.6" gradientUnits="userSpaceOnUse">
<stop stop-color="#A1D9D6"/>
<stop offset="1" stop-color="#00A19A"/>
</linearGradient>
<linearGradient id="paint40_linear" x1="45424.2" y1="3055.35" x2="45407.2" y2="2899.49" gradientUnits="userSpaceOnUse">
<stop stop-color="#A1D9D6"/>
<stop offset="1" stop-color="#00A19A"/>
</linearGradient>
<linearGradient id="paint41_linear" x1="10153.8" y1="1030.71" x2="10150.8" y2="1007.37" gradientUnits="userSpaceOnUse">
<stop stop-color="#A1D9D6"/>
<stop offset="1" stop-color="#00A19A"/>
</linearGradient>
<linearGradient id="paint42_linear" x1="9561.82" y1="4444.72" x2="7981.52" y2="5117.52" gradientUnits="userSpaceOnUse">
<stop stop-color="#F6F6F6"/>
<stop offset="1" stop-color="#DCCCCA"/>
</linearGradient>
<linearGradient id="paint43_linear" x1="4536.85" y1="10992.1" x2="3921.79" y2="11052.5" gradientUnits="userSpaceOnUse">
<stop stop-color="#F6F6F6"/>
<stop offset="1" stop-color="#DCCCCA"/>
</linearGradient>
<linearGradient id="paint44_linear" x1="5102.78" y1="10942.6" x2="4356.37" y2="11015.9" gradientUnits="userSpaceOnUse">
<stop stop-color="#F6F6F6"/>
<stop offset="1" stop-color="#DCCCCA"/>
</linearGradient>
<linearGradient id="paint45_linear" x1="4164.81" y1="4485.16" x2="4186.23" y2="3554.36" gradientUnits="userSpaceOnUse">
<stop stop-color="#A1D9D6"/>
<stop offset="1" stop-color="#00A19A"/>
</linearGradient>
<linearGradient id="paint46_linear" x1="4169.03" y1="4494.55" x2="4190.44" y2="3563.75" gradientUnits="userSpaceOnUse">
<stop stop-color="#A1D9D6"/>
<stop offset="1" stop-color="#00A19A"/>
</linearGradient>
<linearGradient id="paint47_linear" x1="4173.24" y1="4501.43" x2="4194.64" y2="3571.32" gradientUnits="userSpaceOnUse">
<stop stop-color="#A1D9D6"/>
<stop offset="1" stop-color="#00A19A"/>
</linearGradient>
<linearGradient id="paint48_linear" x1="4177.46" y1="4510.83" x2="4199.03" y2="3580.53" gradientUnits="userSpaceOnUse">
<stop stop-color="#A1D9D6"/>
<stop offset="1" stop-color="#00A19A"/>
</linearGradient>
<linearGradient id="paint49_linear" x1="634.013" y1="453.455" x2="634.063" y2="449.14" gradientUnits="userSpaceOnUse">
<stop stop-color="#FAD6C7"/>
<stop offset="1" stop-color="#E4857F"/>
</linearGradient>
<linearGradient id="paint50_linear" x1="634.03" y1="472.705" x2="634.079" y2="468.402" gradientUnits="userSpaceOnUse">
<stop stop-color="#FAD6C7"/>
<stop offset="1" stop-color="#E4857F"/>
</linearGradient>
<linearGradient id="paint51_linear" x1="620.253" y1="495.46" x2="620.307" y2="491.123" gradientUnits="userSpaceOnUse">
<stop stop-color="#FAD6C7"/>
<stop offset="1" stop-color="#E4857F"/>
</linearGradient>
<linearGradient id="paint52_linear" x1="634.03" y1="513.954" x2="634.079" y2="509.651" gradientUnits="userSpaceOnUse">
<stop stop-color="#FAD6C7"/>
<stop offset="1" stop-color="#E4857F"/>
</linearGradient>
<linearGradient id="paint53_linear" x1="4674.91" y1="-7961.2" x2="4675" y2="-8211" gradientUnits="userSpaceOnUse">
<stop stop-color="#FAD6C7"/>
<stop offset="1" stop-color="#E4857F"/>
</linearGradient>
<linearGradient id="paint54_linear" x1="48212.4" y1="3142.92" x2="48206.1" y2="2925.22" gradientUnits="userSpaceOnUse">
<stop stop-color="#F6F6F6"/>
<stop offset="1" stop-color="#DCCCCA"/>
</linearGradient>
<linearGradient id="paint55_linear" x1="12584.1" y1="12239.8" x2="12276.9" y2="12203.4" gradientUnits="userSpaceOnUse">
<stop stop-color="#FAD6C7"/>
<stop offset="1" stop-color="#E4857F"/>
</linearGradient>
<linearGradient id="paint56_linear" x1="17903.6" y1="12333.3" x2="17359.2" y2="12244.4" gradientUnits="userSpaceOnUse">
<stop stop-color="#FAD6C7"/>
<stop offset="1" stop-color="#E4857F"/>
</linearGradient>
<linearGradient id="paint57_linear" x1="-1433.1" y1="5430.38" x2="-1407.8" y2="5398.06" gradientUnits="userSpaceOnUse">
<stop stop-color="#FAD6C7"/>
<stop offset="1" stop-color="#E4857F"/>
</linearGradient>
<linearGradient id="paint58_linear" x1="27769" y1="9161.7" x2="27697.6" y2="8527.58" gradientUnits="userSpaceOnUse">
<stop stop-color="#FAD6C7"/>
<stop offset="1" stop-color="#E4857F"/>
</linearGradient>
<linearGradient id="paint59_linear" x1="-19940.2" y1="20507.6" x2="-19128.3" y2="19736.5" gradientUnits="userSpaceOnUse">
<stop stop-color="#FAD6C7"/>
<stop offset="1" stop-color="#E4857F"/>
</linearGradient>
<linearGradient id="paint60_linear" x1="13573" y1="1985.48" x2="13567.3" y2="1856.99" gradientUnits="userSpaceOnUse">
<stop stop-color="#FAD6C7"/>
<stop offset="1" stop-color="#E4857F"/>
</linearGradient>
<linearGradient id="paint61_linear" x1="-56041" y1="12952.9" x2="-55663.9" y2="12952.9" gradientUnits="userSpaceOnUse">
<stop stop-color="#FAD6C7"/>
<stop offset="1" stop-color="#E4857F"/>
</linearGradient>
<linearGradient id="paint62_linear" x1="-31365.1" y1="10041.8" x2="-31595.8" y2="9964.79" gradientUnits="userSpaceOnUse">
<stop stop-color="#F6F6F6"/>
<stop offset="1" stop-color="#DCCCCA"/>
</linearGradient>
<linearGradient id="paint63_linear" x1="-88401.1" y1="16242" x2="-88628.2" y2="18228.5" gradientUnits="userSpaceOnUse">
<stop stop-color="#FAD6C7"/>
<stop offset="1" stop-color="#E4857F"/>
</linearGradient>
<linearGradient id="paint64_linear" x1="-88616" y1="16450.8" x2="-88843.4" y2="18439" gradientUnits="userSpaceOnUse">
<stop stop-color="#FAD6C7"/>
<stop offset="1" stop-color="#E4857F"/>
</linearGradient>
<linearGradient id="paint65_linear" x1="-44567" y1="10024.4" x2="-44265" y2="11702.6" gradientUnits="userSpaceOnUse">
<stop stop-color="#F6F6F6"/>
<stop offset="1" stop-color="#DCCCCA"/>
</linearGradient>
<linearGradient id="paint66_linear" x1="-76940.1" y1="13287.9" x2="-77115.2" y2="14814.1" gradientUnits="userSpaceOnUse">
<stop stop-color="#FAD6C7"/>
<stop offset="1" stop-color="#E4857F"/>
</linearGradient>
<linearGradient id="paint67_linear" x1="-58674" y1="10170" x2="-58156.8" y2="11878" gradientUnits="userSpaceOnUse">
<stop stop-color="#F6F6F6"/>
<stop offset="1" stop-color="#DCCCCA"/>
</linearGradient>
<linearGradient id="paint68_linear" x1="-18180.8" y1="3024.2" x2="-18178.4" y2="2960.73" gradientUnits="userSpaceOnUse">
<stop stop-color="#FAD6C7"/>
<stop offset="1" stop-color="#E4857F"/>
</linearGradient>
<linearGradient id="paint69_linear" x1="56658.6" y1="10865" x2="56627.7" y2="10747.4" gradientUnits="userSpaceOnUse">
<stop stop-color="#FAD6C7"/>
<stop offset="1" stop-color="#E4857F"/>
</linearGradient>
<linearGradient id="paint70_linear" x1="390.27" y1="305.27" x2="388.73" y2="297.36" gradientUnits="userSpaceOnUse">
<stop stop-color="#A48A7B"/>
<stop offset="1" stop-color="#634E42"/>
</linearGradient>
<linearGradient id="paint71_linear" x1="-27615.8" y1="2792.65" x2="-27597.3" y2="2726.69" gradientUnits="userSpaceOnUse">
<stop stop-color="#A48A7B"/>
<stop offset="1" stop-color="#634E42"/>
</linearGradient>
<linearGradient id="paint72_linear" x1="17912.2" y1="5198.61" x2="17903.9" y2="5044.94" gradientUnits="userSpaceOnUse">
<stop stop-color="#F6F6F6"/>
<stop offset="1" stop-color="#DCCCCA"/>
</linearGradient>
<linearGradient id="paint73_linear" x1="-25256.8" y1="1160.07" x2="-25256.8" y2="1223.45" gradientUnits="userSpaceOnUse">
<stop stop-color="#F6F6F6"/>
<stop offset="1" stop-color="#DCCCCA"/>
</linearGradient>
<linearGradient id="paint74_linear" x1="-92147.7" y1="4532.13" x2="-92007.4" y2="4865.12" gradientUnits="userSpaceOnUse">
<stop stop-color="#F6F6F6"/>
<stop offset="1" stop-color="#DCCCCA"/>
</linearGradient>
<linearGradient id="paint75_linear" x1="-25520.4" y1="2831.94" x2="-25524.9" y2="2990.3" gradientUnits="userSpaceOnUse">
<stop stop-color="#F6F6F6"/>
<stop offset="1" stop-color="#DCCCCA"/>
</linearGradient>
<linearGradient id="paint76_linear" x1="-92330.9" y1="3151.47" x2="-92685.5" y2="3559.64" gradientUnits="userSpaceOnUse">
<stop stop-color="#F6F6F6"/>
<stop offset="1" stop-color="#DCCCCA"/>
</linearGradient>
<linearGradient id="paint77_linear" x1="143291" y1="2393.4" x2="143333" y2="2450.81" gradientUnits="userSpaceOnUse">
<stop stop-color="#A1D9D6"/>
<stop offset="1" stop-color="#00A19A"/>
</linearGradient>
<linearGradient id="paint78_linear" x1="221313" y1="3360.96" x2="221521" y2="3727" gradientUnits="userSpaceOnUse">
<stop stop-color="#A1D9D6"/>
<stop offset="1" stop-color="#00A19A"/>
</linearGradient>
<linearGradient id="paint79_linear" x1="5400.47" y1="1678.52" x2="5399.82" y2="1665.14" gradientUnits="userSpaceOnUse">
<stop stop-color="#F6F6F6"/>
<stop offset="1" stop-color="#DCCCCA"/>
</linearGradient>
<linearGradient id="paint80_linear" x1="4470.24" y1="3912.19" x2="4178.68" y2="4302.07" gradientUnits="userSpaceOnUse">
<stop stop-color="#F6F6F6"/>
<stop offset="1" stop-color="#DCCCCA"/>
</linearGradient>
<linearGradient id="paint81_linear" x1="4395.33" y1="724.514" x2="4517.65" y2="724.514" gradientUnits="userSpaceOnUse">
<stop stop-color="#F6F6F6"/>
<stop offset="1" stop-color="#DCCCCA"/>
</linearGradient>
<linearGradient id="paint82_linear" x1="2473.54" y1="5462.71" x2="2565.61" y2="6788.83" gradientUnits="userSpaceOnUse">
<stop stop-color="#A1D9D6"/>
<stop offset="1" stop-color="#00A19A"/>
</linearGradient>
<linearGradient id="paint83_linear" x1="3622.73" y1="4677.28" x2="4198.87" y2="5026.14" gradientUnits="userSpaceOnUse">
<stop stop-color="#A1D9D6"/>
<stop offset="1" stop-color="#00A19A"/>
</linearGradient>
<linearGradient id="paint84_linear" x1="2604.01" y1="3457.1" x2="2420.03" y2="3619.38" gradientUnits="userSpaceOnUse">
<stop stop-color="#A1D9D6"/>
<stop offset="1" stop-color="#00A19A"/>
</linearGradient>
<linearGradient id="paint85_linear" x1="7737.37" y1="3732.01" x2="15920.1" y2="5603.08" gradientUnits="userSpaceOnUse">
<stop stop-color="#FAD6C7"/>
<stop offset="1" stop-color="#E4857F"/>
</linearGradient>
<linearGradient id="paint86_linear" x1="22968.2" y1="38636" x2="18421.3" y2="37224.7" gradientUnits="userSpaceOnUse">
<stop stop-color="#FAD6C7"/>
<stop offset="1" stop-color="#E4857F"/>
</linearGradient>
<linearGradient id="paint87_linear" x1="19907.4" y1="417.277" x2="20061.1" y2="811.772" gradientUnits="userSpaceOnUse">
<stop stop-color="#FAD6C7"/>
<stop offset="1" stop-color="#E4857F"/>
</linearGradient>
<linearGradient id="paint88_linear" x1="1563.46" y1="4885.21" x2="2949.9" y2="4939.38" gradientUnits="userSpaceOnUse">
<stop stop-color="#FAD6C7"/>
<stop offset="1" stop-color="#E4857F"/>
</linearGradient>
<linearGradient id="paint89_linear" x1="15902.2" y1="13374" x2="18631" y2="16486" gradientUnits="userSpaceOnUse">
<stop stop-color="#F6F6F6"/>
<stop offset="1" stop-color="#DCCCCA"/>
</linearGradient>
<linearGradient id="paint90_linear" x1="15484.8" y1="17017.1" x2="15484.8" y2="16606.7" gradientUnits="userSpaceOnUse">
<stop stop-color="#F6F6F6"/>
<stop offset="1" stop-color="#DCCCCA"/>
</linearGradient>
<linearGradient id="paint91_linear" x1="236.55" y1="268.72" x2="215.57" y2="295.58" gradientUnits="userSpaceOnUse">
<stop stop-color="white"/>
<stop offset="1" stop-color="#DCCCCA"/>
</linearGradient>
<linearGradient id="paint92_linear" x1="24014.9" y1="7958.02" x2="23532.6" y2="8327.07" gradientUnits="userSpaceOnUse">
<stop stop-color="#FAD6C7"/>
<stop offset="1" stop-color="#E4857F"/>
</linearGradient>
<linearGradient id="paint93_linear" x1="12828" y1="20886.6" x2="16157.6" y2="17042.9" gradientUnits="userSpaceOnUse">
<stop stop-color="#FAD6C7"/>
<stop offset="1" stop-color="#E4857F"/>
</linearGradient>
<linearGradient id="paint94_linear" x1="9206.11" y1="2134.05" x2="9224.49" y2="2016.33" gradientUnits="userSpaceOnUse">
<stop stop-color="#FAD6C7"/>
<stop offset="1" stop-color="#E4857F"/>
</linearGradient>
<linearGradient id="paint95_linear" x1="13811.7" y1="2786.58" x2="13722.6" y2="2670.51" gradientUnits="userSpaceOnUse">
<stop stop-color="#FAD6C7"/>
<stop offset="1" stop-color="#E4857F"/>
</linearGradient>
<linearGradient id="paint96_linear" x1="199.57" y1="427.89" x2="228.22" y2="258.69" gradientUnits="userSpaceOnUse">
<stop stop-color="#F3BCB0"/>
<stop offset="1" stop-color="#E4857F"/>
</linearGradient>
<linearGradient id="paint97_linear" x1="16720" y1="11359.1" x2="16220.1" y2="11702.5" gradientUnits="userSpaceOnUse">
<stop stop-color="#A1D9D6"/>
<stop offset="1" stop-color="#00A19A"/>
</linearGradient>
<linearGradient id="paint98_linear" x1="24816" y1="6888.87" x2="25003.4" y2="5899.72" gradientUnits="userSpaceOnUse">
<stop stop-color="#FAD6C7"/>
<stop offset="1" stop-color="#E4857F"/>
</linearGradient>
<linearGradient id="paint99_linear" x1="7762.2" y1="4230.14" x2="7951.99" y2="4359.9" gradientUnits="userSpaceOnUse">
<stop stop-color="#A1D9D6"/>
<stop offset="1" stop-color="#00A19A"/>
</linearGradient>
<linearGradient id="paint100_linear" x1="41975.3" y1="4086.36" x2="41969.1" y2="3868.68" gradientUnits="userSpaceOnUse">
<stop stop-color="#F6F6F6"/>
<stop offset="1" stop-color="#DCCCCA"/>
</linearGradient>
<clipPath id="clip0">
<rect width="565.26" height="547.98" fill="white" transform="translate(187 18)"/>
</clipPath>
</defs>
</svg>
