<svg width="28" height="28" viewBox="0 0 28 28" fill="none" xmlns="http://www.w3.org/2000/svg">
<path d="M12.8334 10.5H15.1667V7.00001H18.6667V4.66667H15.1667V1.16667H12.8334V4.66667H9.33335V7.00001H12.8334V10.5ZM8.16669 21C6.88335 21 5.84502 22.05 5.84502 23.3333C5.84502 24.6167 6.88335 25.6667 8.16669 25.6667C9.45002 25.6667 10.5 24.6167 10.5 23.3333C10.5 22.05 9.45002 21 8.16669 21ZM19.8334 21C18.55 21 17.5117 22.05 17.5117 23.3333C17.5117 24.6167 18.55 25.6667 19.8334 25.6667C21.1167 25.6667 22.1667 24.6167 22.1667 23.3333C22.1667 22.05 21.1167 21 19.8334 21ZM8.36502 17.2083L8.40002 17.0683L9.45002 15.1667H18.1417C19.0167 15.1667 19.7867 14.6883 20.1834 13.965L24.6867 5.78667L22.6567 4.66667H22.645L21.3617 7.00001L18.1417 12.8333H9.95169L9.80002 12.5183L7.18669 7.00001L6.07835 4.66667L4.98169 2.33334H1.16669V4.66667H3.50002L7.70002 13.5217L6.12502 16.38C5.93835 16.7067 5.83335 17.0917 5.83335 17.5C5.83335 18.7833 6.88335 19.8333 8.16669 19.8333H22.1667V17.5H8.65669C8.50502 17.5 8.36502 17.3717 8.36502 17.2083Z" fill="#A6A6A6"/>
</svg>
