<svg width="14" height="14" viewBox="0 0 14 14" fill="none" xmlns="http://www.w3.org/2000/svg">
<path d="M7.00008 11.0133C7.01063 11.1016 7.00088 11.1911 6.97156 11.275C6.94224 11.3589 6.89413 11.435 6.83091 11.4975C6.72162 11.6061 6.57377 11.6671 6.41966 11.6671C6.26555 11.6671 6.1177 11.6061 6.00841 11.4975L3.67508 9.16416C3.60998 9.1016 3.56028 9.02478 3.52992 8.93976C3.49955 8.85473 3.48934 8.76381 3.50008 8.67416V5.6875L0.70591 2.11166C0.611181 1.99006 0.568438 1.8359 0.587019 1.68287C0.605601 1.52985 0.683997 1.3904 0.805077 1.295C0.907708 1.21265 1.03516 1.16743 1.16674 1.16666H9.33341C9.46499 1.16743 9.59245 1.21265 9.69508 1.295C9.81616 1.3904 9.89455 1.52985 9.91313 1.68287C9.93172 1.8359 9.88897 1.99006 9.79424 2.11166L7.00008 5.6875V11.0133ZM2.33341 2.33333L4.66674 5.285V8.505L5.83341 9.67166V5.27916L8.16674 2.33333H2.33341ZM7.58341 9.33333L10.5001 12.25L13.4167 9.33333H7.58341Z" fill="#333333"/>
</svg>
