<svg width="20" height="20" viewBox="0 0 20 20" fill="none" xmlns="http://www.w3.org/2000/svg">
<path d="M15.8334 14.1667H18.3334L15 17.5L11.6667 14.1667H14.1667V2.5H15.8334V14.1667ZM9.16669 10.8333V12.5L6.39169 15.8333H9.16669V17.5H4.16669V15.8333L6.94169 12.5H4.16669V10.8333H9.16669ZM7.50002 2.5H5.83335C4.91669 2.5 4.16669 3.25 4.16669 4.16667V9.16667H5.83335V7.5H7.50002V9.16667H9.16669V4.16667C9.16669 3.72464 8.99109 3.30072 8.67853 2.98816C8.36597 2.67559 7.94205 2.5 7.50002 2.5ZM7.50002 5.83333H5.83335V4.16667H7.50002V5.83333Z" fill="#333333"/>
</svg>
