<svg width="24" height="24" viewBox="0 0 24 24" fill="none" xmlns="http://www.w3.org/2000/svg">
<path d="M20.3571 6.45455H17.1429V5.18182C17.1429 5.08182 17.0705 5 16.9821 5H15.8571C15.7688 5 15.6964 5.08182 15.6964 5.18182V6.45455H12.7232V5.18182C12.7232 5.08182 12.6509 5 12.5625 5H11.4375C11.3491 5 11.2768 5.08182 11.2768 5.18182V6.45455H8.30357V5.18182C8.30357 5.08182 8.23125 5 8.14286 5H7.01786C6.92946 5 6.85714 5.08182 6.85714 5.18182V6.45455H3.64286C3.28728 6.45455 3 6.77955 3 7.18182V20.2727C3 20.675 3.28728 21 3.64286 21H20.3571C20.7127 21 21 20.675 21 20.2727V7.18182C21 6.77955 20.7127 6.45455 20.3571 6.45455ZM10.2321 17C10.2321 17.1 10.1598 17.1818 10.0714 17.1818H6.375C6.28661 17.1818 6.21429 17.1 6.21429 17V15.9091C6.21429 15.8091 6.28661 15.7273 6.375 15.7273H10.0714C10.1598 15.7273 10.2321 15.8091 10.2321 15.9091V17ZM10.2321 13.9091C10.2321 14.0091 10.1598 14.0909 10.0714 14.0909H6.375C6.28661 14.0909 6.21429 14.0091 6.21429 13.9091V12.8182C6.21429 12.7182 6.28661 12.6364 6.375 12.6364H10.0714C10.1598 12.6364 10.2321 12.7182 10.2321 12.8182V13.9091ZM17.7556 11.8341L14.4408 17.0318C14.4113 17.0783 14.3723 17.1161 14.3273 17.1422C14.2822 17.1683 14.2323 17.1819 14.1817 17.1819C14.1311 17.1819 14.0812 17.1683 14.0361 17.1422C13.9911 17.1161 13.9521 17.0783 13.9225 17.0318L11.6283 13.4364C11.552 13.3159 11.6283 13.1477 11.7589 13.1477H12.8618C12.9643 13.1477 13.0607 13.2045 13.121 13.2977L14.1817 14.9591L16.265 11.6932C16.3252 11.5977 16.4217 11.5432 16.5241 11.5432H17.625C17.7556 11.5455 17.8319 11.7136 17.7556 11.8341Z" fill="#76879D"/>
</svg>
