<svg width="28" height="28" viewBox="0 0 28 28" fill="none" xmlns="http://www.w3.org/2000/svg">
<path d="M22.33 15.092C22.372 14.742 22.4 14.378 22.4 14C22.4 13.622 22.372 13.258 22.316 12.908L24.682 11.06C24.892 10.892 24.948 10.584 24.822 10.346L22.582 6.468C22.442 6.216 22.148 6.132 21.896 6.216L19.11 7.336C18.522 6.888 17.906 6.524 17.22 6.244L16.8 3.276C16.758 2.996 16.52 2.8 16.24 2.8H11.76C11.48 2.8 11.256 2.996 11.214 3.276L10.794 6.244C10.108 6.524 9.47802 6.902 8.90402 7.336L6.11802 6.216C5.86602 6.118 5.57202 6.216 5.43202 6.468L3.19202 10.346C3.05202 10.598 3.10802 10.892 3.33202 11.06L5.69802 12.908C5.64202 13.258 5.60002 13.636 5.60002 14C5.60002 14.364 5.62802 14.742 5.68402 15.092L3.31802 16.94C3.10802 17.108 3.05202 17.416 3.17802 17.654L5.41802 21.532C5.55802 21.784 5.85202 21.868 6.10402 21.784L8.89002 20.664C9.47802 21.112 10.094 21.476 10.78 21.756L11.2 24.724C11.256 25.004 11.48 25.2 11.76 25.2H16.24C16.52 25.2 16.758 25.004 16.786 24.724L17.206 21.756C17.892 21.476 18.522 21.098 19.096 20.664L21.882 21.784C22.134 21.882 22.428 21.784 22.568 21.532L24.808 17.654C24.948 17.402 24.892 17.108 24.668 16.94L22.33 15.092ZM14 18.2C11.69 18.2 9.80002 16.31 9.80002 14C9.80002 11.69 11.69 9.8 14 9.8C16.31 9.8 18.2 11.69 18.2 14C18.2 16.31 16.31 18.2 14 18.2Z" fill="#A6A6A6"/>
</svg>
