<svg width="22" height="20" viewBox="0 0 22 20" fill="none" xmlns="http://www.w3.org/2000/svg">
<path d="M10.499 4.56757C14.0063 4.56757 16.8496 7.46257 16.8496 11.0338V15.7568C16.8496 15.9288 16.7825 16.0938 16.663 16.2154C16.5435 16.3371 16.3815 16.4054 16.2125 16.4054H4.78537C4.61641 16.4054 4.45438 16.3371 4.33491 16.2154C4.21543 16.0938 4.14832 15.9288 4.14832 15.7568V11.0338C4.14832 7.46257 6.99157 4.56757 10.499 4.56757ZM9.94153 1H11.0564C11.0986 1 11.1391 1.01708 11.169 1.0475C11.1989 1.07791 11.2156 1.11915 11.2156 1.16216V3.10811C11.2156 3.15112 11.1989 3.19236 11.169 3.22277C11.1391 3.25319 11.0986 3.27027 11.0564 3.27027H9.94153C9.89929 3.27027 9.85878 3.25319 9.82892 3.22277C9.79905 3.19236 9.78227 3.15112 9.78227 3.10811V1.16216C9.78227 1.11915 9.79905 1.07791 9.82892 1.0475C9.85878 1.01708 9.89929 1 9.94153 1ZM3.83477 3.50662C3.84956 3.49154 3.86712 3.47958 3.88646 3.47142C3.90579 3.46326 3.92652 3.45906 3.94745 3.45906C3.96838 3.45906 3.9891 3.46326 4.00843 3.47142C4.02777 3.47958 4.04533 3.49154 4.06012 3.50662L5.41148 4.88257C5.44132 4.91298 5.45809 4.95421 5.45809 4.9972C5.45809 5.04019 5.44132 5.08142 5.41148 5.11182L4.62312 5.91453C4.59326 5.94492 4.55276 5.96199 4.51054 5.96199C4.46832 5.96199 4.42783 5.94492 4.39796 5.91453L3.04661 4.53858C3.01677 4.50817 3 4.46694 3 4.42395C3 4.38096 3.01677 4.33973 3.04661 4.30932L3.83497 3.50662H3.83477ZM17.1651 3.50662L17.9535 4.30932C17.9833 4.33972 18 4.38091 18 4.42385C18 4.46679 17.9833 4.50798 17.9535 4.53838L16.6021 5.91473C16.5873 5.92981 16.5698 5.94177 16.5504 5.94993C16.5311 5.95809 16.5104 5.96229 16.4895 5.96229C16.4685 5.96229 16.4478 5.95809 16.4285 5.94993C16.4091 5.94177 16.3916 5.92981 16.3768 5.91473L15.5884 5.11203C15.5736 5.09697 15.5619 5.07908 15.5539 5.0594C15.5458 5.03971 15.5417 5.01861 15.5417 4.9973C15.5417 4.97599 15.5458 4.95488 15.5539 4.9352C15.5619 4.91551 15.5736 4.89763 15.5884 4.88257L16.94 3.50662C16.9698 3.47623 17.0103 3.45916 17.0526 3.45916C17.0948 3.45916 17.1353 3.47623 17.1651 3.50662ZM4.12841 17.7027H16.8695C17.0385 17.7027 17.2005 17.771 17.32 17.8927C17.4394 18.0143 17.5066 18.1793 17.5066 18.3514V18.8378C17.5066 18.8808 17.4898 18.9221 17.4599 18.9525C17.43 18.9829 17.3895 19 17.3473 19H3.65062C3.60838 19 3.56787 18.9829 3.538 18.9525C3.50813 18.9221 3.49135 18.8808 3.49135 18.8378V18.3514C3.49135 18.1793 3.55847 18.0143 3.67794 17.8927C3.79741 17.771 3.95945 17.7027 4.12841 17.7027ZM7.07479 11.277V16.4054H8.3489V11.277H7.07479Z" fill="#76879D"/>
</svg>
