<svg width="22" height="20" viewBox="0 0 22 20" fill="none" xmlns="http://www.w3.org/2000/svg">
<path d="M4.5388 2.20001H17.4612C19.0636 3.68387 20.1226 4.66642 20.6382 5.14767C20.8127 5.2359 20.9 5.37225 20.9 5.55673V7.25314C20.9 7.4296 20.8544 7.63012 20.7631 7.8547C20.6719 8.07928 20.5628 8.19158 20.4359 8.19158H20.0551V16.3488C20.0551 16.5653 20.0234 16.828 19.96 17.1368C19.8965 17.4456 19.8053 17.6 19.6863 17.6H18.1037C17.9768 17.6 17.838 17.4316 17.6872 17.0947C17.5365 16.7578 17.4612 16.5092 17.4612 16.3488V8.19158H4.5388V16.3488C4.5388 16.5092 4.46344 16.7578 4.31272 17.0947C4.16199 17.4316 4.02317 17.6 3.89625 17.6H2.31368C2.19469 17.6 2.10346 17.4456 2.04 17.1368C1.97654 16.828 1.94481 16.5653 1.94481 16.3488V8.19158H1.56404C1.43711 8.19158 1.32804 8.07928 1.23681 7.8547C1.14559 7.63012 1.09998 7.4296 1.09998 7.25314V5.55673C1.09998 5.37225 1.18724 5.2359 1.36175 5.14767L4.5388 2.20001ZM16.8424 12.6191V8.86532H14.8196V12.6191C14.8196 12.8116 14.8553 13.0181 14.9267 13.2387C14.9981 13.4593 15.0972 13.5695 15.2241 13.5695H16.069C16.2038 13.5695 16.3664 13.4472 16.5568 13.2026C16.7472 12.958 16.8424 12.7635 16.8424 12.6191ZM5.15755 12.6191V8.86532H7.18038V12.6191C7.18038 12.8116 7.14469 13.0181 7.07329 13.2387C7.0019 13.4593 6.90274 13.5695 6.77582 13.5695H5.93098C5.79613 13.5695 5.63351 13.4472 5.44312 13.2026C5.25274 12.958 5.15755 12.7635 5.15755 12.6191Z" fill="#76879D"/>
</svg>
