<svg width="30" height="30" viewBox="0 0 30 30" fill="none" xmlns="http://www.w3.org/2000/svg">
<path d="M26.2371 30H3.75904C2.72489 30 1.84196 29.6338 1.11026 28.9014C0.378549 28.1689 0.0126953 27.2852 0.0126953 26.25V3.75C0.0126953 2.71484 0.378549 1.83105 1.11026 1.09863C1.84196 0.366211 2.72489 0 3.75904 0H26.2371C27.2712 0 28.1542 0.366211 28.8859 1.09863C29.6176 1.83105 29.9834 2.71484 29.9834 3.75V26.25C29.9834 27.2852 29.6176 28.1689 28.8859 28.9014C28.1542 29.6338 27.2712 30 26.2371 30ZM22.4907 15C22.4907 14.5508 22.4322 14.0527 22.3151 13.5059L24.3054 11.6016C24.442 11.4844 24.4127 11.2598 24.2176 10.9277L22.9298 8.96484C22.7346 8.65234 22.5298 8.51562 22.3151 8.55469L19.8273 9.31641C19.1249 8.71094 18.3737 8.26172 17.5737 7.96875L17.0761 5.91797C17.0176 5.72266 16.7834 5.625 16.3737 5.625H13.8859C13.4761 5.625 13.242 5.72266 13.1834 5.91797L12.6273 7.88086C11.7493 8.17383 10.9298 8.65234 10.1688 9.31641L7.68099 8.55469C7.46635 8.51562 7.26148 8.65234 7.06635 8.96484L5.77855 10.9277C5.58343 11.2598 5.56391 11.4844 5.72001 11.6016L7.68099 13.5059C7.56391 14.0527 7.50538 14.5508 7.50538 15C7.50538 15.4492 7.56391 15.9473 7.68099 16.4941L5.72001 18.3984C5.56391 18.5156 5.58343 18.7402 5.77855 19.0723L7.06635 21.0352C7.26148 21.3477 7.46635 21.4844 7.68099 21.4453L10.1688 20.6836C10.8712 21.2891 11.6225 21.7383 12.4225 22.0312L12.92 24.082C12.9785 24.2773 13.2127 24.375 13.6225 24.375H16.1103C16.52 24.375 16.7542 24.2773 16.8127 24.082L17.3688 22.1191C18.2468 21.8262 19.0664 21.3477 19.8273 20.6836L22.3151 21.4453C22.5298 21.4844 22.7346 21.3477 22.9298 21.0352L24.2176 19.0723C24.4127 18.7402 24.442 18.5156 24.3054 18.3984L22.3151 16.4941C22.4322 15.9473 22.4907 15.4492 22.4907 15ZM14.9981 18.75C13.9639 18.75 13.081 18.3838 12.3493 17.6514C11.6176 16.9189 11.2517 16.0352 11.2517 15C11.2517 13.9648 11.6176 13.0811 12.3493 12.3486C13.081 11.6162 13.9639 11.25 14.9981 11.25C16.0322 11.25 16.9151 11.6162 17.6468 12.3486C18.3785 13.0811 18.7444 13.9648 18.7444 15C18.7444 16.0352 18.3785 16.9189 17.6468 17.6514C16.9151 18.3838 16.0322 18.75 14.9981 18.75Z" fill="#333333"/>
</svg>
